<?xml version="1.0" encoding="iso-8859-1"?>
<!-- Generator: Adobe Illustrator 17.1.0, SVG Export Plug-In . SVG Version: 6.00 Build 0)  -->
<!DOCTYPE svg PUBLIC "-//W3C//DTD SVG 1.1//EN" "http://www.w3.org/Graphics/SVG/1.1/DTD/svg11.dtd">
<svg version="1.1" id="Capa_1" xmlns="http://www.w3.org/2000/svg" xmlns:xlink="http://www.w3.org/1999/xlink" x="0px" y="0px"
	 viewBox="0 0 444 444" style="enable-background:new 0 0 444 444;" xml:space="preserve">
<g>
	<path d="M336.355,196.663c-3.116-2.286-7.271-2.569-10.672-0.73c-6.274,3.396-12.254,5.047-18.279,5.047
		c-9.053,0-17.498-3.67-26.439-7.557c-9.575-4.162-19.477-8.465-30.789-8.465c-9.778,0-19.06,3.258-28.176,9.923
		c-9.116-6.665-18.397-9.923-28.175-9.923c-11.314,0-21.216,4.304-30.792,8.465c-8.94,3.886-17.385,7.556-26.438,7.557
		c-6.023,0.001-12.002-1.65-18.277-5.047c-3.4-1.84-7.555-1.557-10.672,0.729c-3.118,2.286-4.639,6.163-3.907,9.958
		c4.577,23.743,38.358,52.42,73.444,52.42c12.286,0,29.249-3.509,44.818-18.787c15.569,15.277,32.531,18.787,44.818,18.787
		c35.084,0,68.866-28.677,73.444-52.42C340.994,202.826,339.474,198.948,336.355,196.663z M214.037,219.078
		c-10.062,13.247-22.461,19.964-36.855,19.964c-15.944,0-31.641-8.335-41.977-18.079c0.461,0.012,0.923,0.018,1.386,0.018
		c0.002,0,0.004,0,0.005,0c13.21-0.001,24.472-4.895,34.408-9.214c8.056-3.501,15.665-6.808,22.82-6.808
		c4.432,0,11.471,1.06,21.387,10.227c0.547,0.505,1.136,0.938,1.755,1.3C215.843,217.14,214.844,218.015,214.037,219.078z
		 M266.818,239.042c-14.394,0-26.794-6.717-36.854-19.964c-0.808-1.063-1.807-1.938-2.93-2.592c0.619-0.361,1.207-0.794,1.754-1.3
		c9.916-9.167,16.955-10.227,21.388-10.227c7.153,0,14.762,3.307,22.817,6.808c9.936,4.319,21.199,9.214,34.411,9.214
		c0.464,0,0.928-0.006,1.39-0.018C298.458,230.706,282.761,239.042,266.818,239.042z"/>
	<path d="M428.091,278.577c5.149-18.366,7.912-37.719,7.912-57.707c0-19.271-2.576-37.95-7.375-55.725
		c4.004-2.31,5.992-7.174,4.506-11.747c-1.475-4.541-5.89-7.298-10.454-6.861c-13.584-36.555-36.888-68.418-66.752-92.447
		c1.598-4.127,0.309-8.967-3.44-11.692c-3.723-2.704-8.682-2.458-12.112,0.283C308.938,21.728,271.671,8.868,231.568,7.095
		C230.323,2.989,226.512,0,222.001,0c-4.512,0-8.323,2.989-9.568,7.095c-40.103,1.774-77.369,14.634-108.806,35.587
		c-3.429-2.742-8.388-2.988-12.114-0.284c-3.75,2.725-5.039,7.566-3.44,11.694c-29.865,24.029-53.169,55.892-66.753,92.446
		c-4.563-0.435-8.978,2.32-10.454,6.86c-1.486,4.573,0.502,9.437,4.507,11.747c-4.799,17.775-7.375,36.454-7.375,55.725
		c0,19.988,2.763,39.341,7.912,57.707c-4.357,2.173-6.594,7.254-5.044,12.025c1.373,4.226,5.294,6.913,9.509,6.913
		c0.584,0,1.174-0.058,1.763-0.164c13.815,35.979,37.073,67.309,66.732,90.941c-2.705,4.406-1.612,10.219,2.642,13.31
		c1.775,1.29,3.832,1.91,5.87,1.91c2.858,0,5.667-1.235,7.623-3.545c31.041,20.346,67.66,32.849,107.027,34.664
		c0.327,5.228,4.658,9.37,9.968,9.37c5.31,0,9.642-4.142,9.969-9.37c39.367-1.814,75.986-14.316,107.028-34.663
		c1.956,2.31,4.765,3.544,7.622,3.544c2.038,0,4.096-0.621,5.87-1.91c4.253-3.09,5.346-8.902,2.642-13.309
		c29.659-23.632,52.918-54.963,66.733-90.942c0.589,0.106,1.179,0.164,1.763,0.164c4.215,0,8.136-2.687,9.509-6.912
		C434.684,285.831,432.448,280.75,428.091,278.577z M211.999,383.057v31.559c-34.956-1.784-67.494-12.87-95.194-30.815l18.64-25.656
		C157.832,372.426,183.96,381.333,211.999,383.057z M232,383.057c28.04-1.723,54.168-10.629,76.554-24.912l18.64,25.656
		c-27.7,17.946-60.239,29.031-95.195,30.814V383.057z M222.003,363.376c-62.706,0-115.998-41.037-134.454-97.661
		c-0.003-0.009-0.005-0.018-0.007-0.027c-0.003-0.009-0.007-0.018-0.01-0.027c-4.478-13.757-6.909-28.43-6.909-43.661
		c0-15.23,2.431-29.902,6.908-43.658c0.003-0.01,0.008-0.02,0.011-0.03c0.003-0.008,0.004-0.017,0.007-0.024
		c18.456-56.625,71.749-97.663,134.455-97.663c62.698,0,115.985,41.03,134.445,97.646c0.004,0.014,0.007,0.028,0.011,0.042
		c0.006,0.017,0.013,0.034,0.019,0.051c4.473,13.751,6.901,28.415,6.901,43.637c0,15.227-2.43,29.896-6.906,43.651
		c-0.004,0.013-0.01,0.025-0.014,0.038c-0.004,0.013-0.006,0.025-0.01,0.039C337.989,322.345,284.702,363.376,222.003,363.376z
		 M27.997,220.87c0-17.039,2.217-33.568,6.362-49.324l31.349,10.186c-3.32,12.876-5.086,26.37-5.086,40.268
		c0,13.898,1.766,27.392,5.086,40.268L34.922,272.27C30.417,255.893,27.997,238.66,27.997,220.87z M232,60.943V27.125
		c35.426,1.807,68.365,13.172,96.305,31.546l-19.75,27.184C286.168,71.573,260.041,62.666,232,60.943z M212.001,60.943
		c-28.04,1.723-54.168,10.63-76.554,24.912l-19.751-27.184c27.94-18.373,60.879-29.738,96.305-31.546V60.943z M378.293,181.732
		l31.348-10.186c4.145,15.755,6.362,32.285,6.362,49.323c0,17.79-2.42,35.022-6.925,51.4l-30.785-10.002
		c3.319-12.876,5.086-26.37,5.086-40.268S381.613,194.608,378.293,181.732z M403.55,152.497l-31.452,10.219
		c-10.114-25.516-26.554-47.86-47.376-65.087l19.711-27.13C370.749,91.966,391.341,120.188,403.55,152.497z M99.568,70.501
		l19.711,27.129c-20.822,17.227-37.262,39.57-47.376,65.086l-31.452-10.22C52.659,120.188,73.252,91.967,99.568,70.501z
		 M41.217,291.254l30.687-9.97c10.114,25.515,26.554,47.858,47.376,65.085l-18.675,25.704
		C74.342,350.949,53.675,323.144,41.217,291.254z M343.396,372.076l-18.675-25.704c20.822-17.227,37.262-39.571,47.376-65.087
		l30.686,9.97C390.325,323.145,369.658,350.95,343.396,372.076z"/>
</g>
<g>
</g>
<g>
</g>
<g>
</g>
<g>
</g>
<g>
</g>
<g>
</g>
<g>
</g>
<g>
</g>
<g>
</g>
<g>
</g>
<g>
</g>
<g>
</g>
<g>
</g>
<g>
</g>
<g>
</g>
</svg>
